<svg width="205" height="42" fill="none" xmlns="http://www.w3.org/2000/svg"><path d="M13.147 17.533l7.924-7.96 7.927 7.966 4.609-4.634L21.07.305 8.535 12.902l4.612 4.63zM.667 20.805l4.61-4.632 4.61 4.633-4.61 4.632-4.61-4.633zm12.48 3.272l7.924 7.963 7.927-7.966 4.612 4.627-.003.004-12.536 12.6L8.535 28.71l-.006-.006 4.618-4.628zm19.1-3.27l4.61-4.633 4.61 4.633-4.61 4.632-4.61-4.632z" fill="#00E3A5"/><path d="M25.747 20.803l-4.676-4.702-3.458 3.475-.4.398-.818.823-.006.006.006.01 4.676 4.696 4.676-4.702.003-.004h-.003zM48.66 10.24h10.028c2.488 0 4.37.648 5.646 1.943a5.021 5.021 0 011.479 3.666v.062a5.426 5.426 0 01-.229 1.644c-.143.46-.35.896-.615 1.296a4.773 4.773 0 01-.89 1.01c-.334.29-.701.54-1.092.745a7.3 7.3 0 012.955 1.943c.717.82 1.076 1.954 1.076 3.4v.062a5.67 5.67 0 01-.57 2.61 5.084 5.084 0 01-1.634 1.865 7.728 7.728 0 01-2.562 1.117c-1.086.26-2.2.384-3.316.373H48.659V10.24zm9.022 8.789a4.94 4.94 0 002.504-.544 1.874 1.874 0 00.922-1.755v-.062a1.928 1.928 0 00-.802-1.661c-.535-.382-1.308-.573-2.317-.573h-4.692v4.595h4.385zm1.267 8.76a4.558 4.558 0 002.481-.574 1.965 1.965 0 00.896-1.787v-.062a2.05 2.05 0 00-.835-1.723c-.554-.431-1.45-.647-2.687-.647h-5.508v4.793h5.653zM72.993 10.24h4.76v21.742h-4.76V10.24zm11.962 0h4.389l10.144 13.38V10.24h4.699v21.742h-4.051L89.66 18.162v13.82h-4.705V10.24zm33.643-.155h4.383l9.271 21.897h-4.969l-1.979-4.877h-9.148l-1.979 4.877h-4.853l9.274-21.897zm5.008 12.797l-2.881-7.053-2.868 7.053h5.749zm13.792-12.642h4.39l10.138 13.38V10.24h4.698v21.742h-4.051l-10.476-13.82v13.82h-4.699V10.24zm36.357 22.124a11.206 11.206 0 01-4.421-.868 10.676 10.676 0 01-3.518-2.372 10.745 10.745 0 01-2.325-3.56 11.552 11.552 0 01-.834-4.382v-.061a11.31 11.31 0 013.155-7.937 10.702 10.702 0 013.544-2.423 11.522 11.522 0 014.573-.884c.928-.007 1.854.077 2.765.25.78.148 1.542.377 2.275.683a9.786 9.786 0 011.885 1.056c.574.41 1.113.867 1.612 1.366l-3.026 3.51a11.53 11.53 0 00-2.578-1.803 6.573 6.573 0 00-2.952-.648 5.966 5.966 0 00-4.512 1.988 6.84 6.84 0 00-1.302 2.16c-.31.84-.466 1.73-.46 2.627v.061a7.567 7.567 0 00.46 2.623c.293.798.73 1.535 1.289 2.173a5.946 5.946 0 004.512 2.02 6.582 6.582 0 003.135-.683 12.149 12.149 0 002.55-1.865l3.029 3.077a15.516 15.516 0 01-1.731 1.619c-.606.482-1.264.893-1.962 1.227-.744.352-1.527.612-2.333.774-.932.188-1.88.279-2.83.272zm14.473-22.124h16.283v4.255H192.91v4.41h10.216v4.256h-10.2v4.566h11.746v4.255h-16.435l-.009-21.742z" fill="#00E3A5"/></svg>