<svg width="179" height="29" fill="none" xmlns="http://www.w3.org/2000/svg"><g clip-path="url(#clip0_1_325)" fill="#00E3A5"><path d="M15.805.837h16.633a1.06 1.06 0 01-.218.596c-.563.948-1.07 1.935-1.623 2.882-.783 1.36-1.515 2.747-2.31 4.102-.504.975-1.073 1.92-1.61 2.879H16.98a8.8 8.8 0 00-.506.018c-.14.364-.374.684-.563 1.026-.246.392-.446.811-.69 1.203-.257.528-.613 1-.872 1.527-.535.89-1.035 1.796-1.558 2.697a101.89 101.89 0 00-1.602 2.801c-.221.336-.425.682-.61 1.038-1.094 1.867-2.152 3.752-3.247 5.618-.093.2-.216.387-.364.553-1.872-.013-3.744 0-5.616 0-.23.004-.46.035-.683.093 0-.508.346-.915.58-1.342.281-.574.657-1.105.94-1.68 2.244-3.94 4.464-7.894 6.7-11.836.508-.857.943-1.732 1.452-2.571.636-1.106 1.23-2.236 1.892-3.328.211-.458.496-.876.728-1.322.825-1.441 1.634-2.89 2.456-4.331a2.5 2.5 0 01.388-.623z"/><path d="M35.079 6.638c1.108-1.9 2.177-3.82 3.3-5.711h6.009c.087.004.174.017.259.04-.2.297-.368.612-.544.921a2950.332 2950.332 0 00-4.334 7.66c-.605 1.04-1.168 2.104-1.782 3.139l-.06.02-.012.13a4908.43 4908.43 0 00-8.446 14.931c-5.515.006-11.031.006-16.547 0 .313-.643.685-1.258 1.034-1.884 1.571-2.835 3.183-5.645 4.731-8.48 3.39-.005 6.778-.005 10.167 0 2.093-3.577 4.141-7.183 6.219-10.766h.006zM97.083.853v27.243h4.811V8.939l8.774 12.617 8.703-12.917v19.457h4.951V.853h-5.325l-8.294 12.576L102.316.853h-5.233zM74.584 7.88h3.144v20.445h-3.144V7.88zm-.27-7.575h3.684v3.43h-3.684V.305zm9.42 1.715h3.284v5.86h6.476v2.855h-6.476V22.88c-.005.468.105.93.323 1.347.556 1.036 2.066 2.265 6.153.828v2.647s-3.73 2.073-7.11.186c0 0-1.677-.7-2.382-3.059a6.767 6.767 0 01-.268-1.944V10.69l-2.769.046V7.879h2.792l-.023-5.858zM129.39.853V28.28h20.88v-4.421h-15.788v-7.276h13.912V12.23h-13.936V5.3h15.649V.854H129.39zm22.84 0h5.947l6.828 9.63 6.773-9.63h5.948l-9.713 13.376 10.318 14.027h-6.264l-7.039-10.245-7.379 10.269h-5.947l10.17-13.93L152.23.853zM64.964 14.05s4.599-1.703 4.317-6.607c0 0-.038-4.716-5.449-6.172-.9-.237-1.828-.354-2.759-.349H48.096l.035 27.243h13.971s8.176-.173 8.752-7.322c0 0 .585-4.997-5.89-6.793zM51.45 3.736h8.283c6.498-.022 6.31 4.468 6.31 4.468.098 5.122-5.865 5.019-5.865 5.019H51.45V3.735zm10.136 21.55H51.45v-9.484h9.69c6.499-.024 6.311 4.466 6.311 4.466.098 5.123-5.865 5.019-5.865 5.019z"/></g><defs><clipPath id="clip0_1_325"><path fill="#fff" transform="translate(.669 .305)" d="M0 0h177.662v28.377H0z"/></clipPath></defs></svg>