<svg width="310" height="25" fill="none" xmlns="http://www.w3.org/2000/svg"><path fill-rule="evenodd" clip-rule="evenodd" d="M79.444 18.555c1.83 0 3.506-.8 4.675-2 .254-.3.813-.85.763-.75l3.913 4.15a12.235 12.235 0 01-9.402 4.35c-6.76 0-12.198-5.35-12.198-12s5.438-12 12.198-12c3.608 0 6.86 1.55 9.097 4l-3.913 4.15-.915-.9a6.29 6.29 0 00-4.218-1.6c-3.507 0-6.404 2.8-6.404 6.3 0 3.45 2.846 6.3 6.404 6.3zm150.535 5.35c1.83 0 3.101-1.25 3.101-3.05 0-1.75-1.271-2.95-3.101-3-1.778 0-3.049 1.25-3.049 3 0 1.8 1.271 3.05 3.049 3.05zm-99.561-7.25c-1.168 1.2-2.846 2-4.675 2-3.558 0-6.404-2.85-6.404-6.3 0-3.5 2.897-6.3 6.404-6.3 1.626 0 3.1.6 4.218 1.6l.915.9 3.964-4.25c-2.236-2.45-5.489-4-9.097-4-6.76 0-12.198 5.35-12.198 12s5.438 12 12.198 12c3.811 0 7.166-1.7 9.402-4.35l-3.913-4.15s-.559.55-.814.85zm116.689 1.9c1.829 0 3.506-.8 4.675-2 .254-.3.813-.85.763-.75l3.913 4.15a12.236 12.236 0 01-9.402 4.35c-6.76 0-12.198-5.35-12.198-12s5.438-12 12.198-12c3.608 0 6.861 1.55 9.097 4l-3.913 4.15-.915-.9a6.29 6.29 0 00-4.218-1.6c-3.507 0-6.404 2.8-6.404 6.3 0 3.45 2.846 6.3 6.404 6.3zm-229.972-6.75c2.084-.9 3.609-2.45 3.609-5.15v-.05c0-1.6-.56-2.8-1.525-3.7-1.372-1.4-3.405-2.1-6.353-2.1H.67v23h12.248c5.59 0 8.843-2.4 8.843-6.35v-.05c0-3.15-1.779-4.7-4.625-5.6zm-9.96-5.9h4.218c1.93 0 2.947.7 2.947 1.95v.05c0 1.35-1.118 2-3.1 2H7.174v-4zm8.13 10.7c0 1.35-1.117 2.1-3.1 2.1h-5.03v-4.25h4.929c2.185 0 3.151.8 3.151 2.05v.1h.05zm8.488-15.8h6.505v17.45h10.52v5.55H23.794v-23zm129.241 8.6H144.7v-8.6h-6.506v23.05l6.506-.05v-8.75h8.334v8.75h6.506v-23h-6.506v8.6zm19.262-8.6h6.2l9.911 23h-6.912l-1.677-4.1h-8.945l-1.677 4.1h-6.759l9.859-23zm2.999 7.5l-2.592 6.5h5.184l-2.592-6.5zm22.514-7.5h-6.505v23.05h6.505V.805zm18.804 12.2V.855h6.505v23h-5.742l-10.012-12.65v12.65h-6.506V.805l6.099.05 9.656 12.15zM113.647.805h-7.674l-8.08 9.35V.805h-6.506v23.05h6.505v-5.95l2.389-2.6 6.556 8.55h7.725l-10.063-13.15 9.148-9.9zm-72.32 11.5c0-6.65 5.438-12 12.197-12 6.709 0 12.198 5.35 12.198 12s-5.438 12-12.198 12c-6.76 0-12.197-5.35-12.197-12zm5.794 0c0 3.45 2.846 6.3 6.403 6.3 3.558 0 6.404-2.8 6.404-6.3 0-3.45-2.846-6.3-6.404-6.3-3.507 0-6.403 2.8-6.403 6.3zm222.093-12c-6.759 0-12.197 5.35-12.197 12s5.438 12 12.197 12c6.76 0 12.198-5.35 12.198-12s-5.438-12-12.198-12zm0 18.3c-3.557 0-6.403-2.85-6.403-6.3 0-3.5 2.897-6.3 6.403-6.3 3.558 0 6.404 2.85 6.404 6.3.051 3.5-2.846 6.3-6.404 6.3zm34.356-8.45l-4.675 11.3h-4.524l-4.675-11.3v13.6h-6.099V.805h7.42l5.641 12.7L302.3.805h7.369v22.95h-6.099v-13.6z" fill="#00E3A5"/></svg>