<svg width="116" height="94" fill="none" xmlns="http://www.w3.org/2000/svg"><path d="M36.93 94.915c11.856 0 21.186-4.918 27.521-13.432 6.31-8.48 9.599-20.451 9.599-34.524h-2c0 13.792-3.226 25.298-9.203 33.33-5.952 7.998-14.682 12.626-25.917 12.626v2zM74.05 46.96c0-14.072-3.288-26.044-9.599-34.524C58.116 3.921 48.786-.997 36.93-.997v2c11.235 0 19.965 4.628 25.917 12.626 5.977 8.032 9.203 19.539 9.203 33.33h2zM36.93-.997c-11.793 0-21.122 4.92-27.472 13.431C3.13 20.914-.19 32.884-.19 46.96h2c0-13.79 3.258-25.296 9.25-33.329 5.97-8 14.701-12.627 25.87-12.627v-2zM-.19 46.96c0 14.075 3.321 26.046 9.648 34.525 6.35 8.512 15.679 13.431 27.472 13.431v-2c-11.169 0-19.9-4.627-25.87-12.627-5.992-8.033-9.25-19.54-9.25-33.329h-2zM36.93 75.5c-5.716 0-9.972-2.432-12.854-7.133-2.924-4.772-4.464-11.941-4.464-21.408h-2c0 9.625 1.556 17.226 4.76 22.453C25.616 74.708 30.52 77.5 36.93 77.5v-2zM19.612 46.96c0-9.467 1.54-16.67 4.466-21.475 2.884-4.736 7.14-7.196 12.852-7.196v-2c-6.415 0-11.317 2.829-14.56 8.155-3.202 5.258-4.758 12.89-4.758 22.515h2zM36.93 18.29c5.713 0 10.003 2.46 12.919 7.199 2.957 4.804 4.528 12.007 4.528 21.47h2c0-9.629-1.59-17.26-4.825-22.519-3.276-5.324-8.209-8.15-14.622-8.15v2zm17.447 28.67c0 9.463-1.572 16.632-4.527 21.403-2.913 4.703-7.202 7.137-12.92 7.137v2c6.408 0 11.342-2.79 14.62-8.084 3.238-5.227 4.827-12.829 4.827-22.457h-2zm45.808-45.15v-1h-.171l-.162.056.333.943zm-23.736 8.384l-.333-.943-.889.314.261.906.961-.277zm4.386 15.222l-.96.277.274.954.956-.268-.27-.963zm17.028-4.773h1v-1.319l-1.27.356.27.963zm0 71.466h-1v1h1v-1zm17.802 0v1h1v-1h-1zm0-90.3h1v-1h-1v1zM99.852.866L76.116 9.251l.666 1.886 23.736-8.385-.666-1.886zm-24.364 9.605l4.386 15.222 1.922-.554L77.41 9.917l-1.922.554zm5.617 15.908l17.028-4.773-.54-1.926-17.028 4.773.54 1.926zm15.758-5.736V92.11h2V20.643h-2zm1 72.466h17.802v-2H97.863v2zm18.802-1V1.81h-2v90.3h2zm-1-91.3h-15.48v2h15.48v-2z" fill="#1F4439"/></svg>