<svg width="139" height="95" fill="none" xmlns="http://www.w3.org/2000/svg"><path d="M36.428 95.791c11.856 0 21.186-4.918 27.521-13.432 6.31-8.48 9.599-20.451 9.599-34.524h-2c0 13.792-3.226 25.298-9.203 33.33-5.952 7.998-14.682 12.626-25.917 12.626v2zm37.12-47.956c0-14.072-3.288-26.044-9.599-34.524C57.614 4.797 48.284-.12 36.428-.12v2c11.235 0 19.965 4.628 25.917 12.626 5.977 8.032 9.203 19.539 9.203 33.33h2zM36.428-.12C24.635-.12 15.306 4.8 8.956 13.31 2.629 21.79-.692 33.76-.692 47.835h2c0-13.79 3.258-25.296 9.25-33.329 5.97-8 14.701-12.627 25.87-12.627v-2zM-.692 47.835c0 14.075 3.321 26.046 9.648 34.525 6.35 8.512 15.679 13.431 27.472 13.431v-2c-11.169 0-19.9-4.627-25.87-12.627-5.992-8.033-9.25-19.54-9.25-33.329h-2zm37.12 28.541c-5.716 0-9.972-2.432-12.854-7.133-2.924-4.771-4.464-11.941-4.464-21.408h-2c0 9.625 1.556 17.226 4.76 22.453 3.245 5.296 8.148 8.088 14.558 8.088v-2zM19.11 47.836c0-9.467 1.54-16.67 4.466-21.475 2.884-4.736 7.14-7.196 12.852-7.196v-2c-6.415 0-11.317 2.829-14.56 8.155-3.202 5.258-4.758 12.89-4.758 22.515h2zm17.318-28.67c5.713 0 10.004 2.46 12.92 7.199 2.956 4.804 4.527 12.007 4.527 21.47h2c0-9.629-1.59-17.26-4.825-22.518-3.276-5.325-8.209-8.152-14.622-8.152v2zm17.447 28.67c0 9.463-1.572 16.632-4.526 21.403-2.914 4.703-7.203 7.137-12.921 7.137v2c6.408 0 11.342-2.79 14.62-8.084 3.238-5.227 4.827-12.829 4.827-22.457h-2zm24.388 45.15h-1v1h1v-1zm60.372 0v1h1v-1h-1zm0-17.158h1v-1h-1v1zm-33.927 0l-.707-.707-1.707 1.707h2.414v-1zm-27.09-55.857l-.912-.41-.368.819.775.454.505-.863zm14.964 8.772l-.505.863.952.558.462-1.003-.909-.418zm16.512 19.221l.718.697.005-.005-.723-.692zm-30.83 31.734l-.718-.697-.283.291v.406h1zm0 14.287h60.371v-2H78.263v2zm61.371-1V75.828h-2v17.157h2zm-1-18.157h-33.927v2h33.927v-2zm-33.22 1.707l17.673-17.673-1.414-1.414-17.673 17.673 1.414 1.414zm17.673-17.673c8.573-8.572 15.128-18.233 15.128-29.603h-2c0 10.56-6.086 19.733-14.542 28.189l1.414 1.414zm15.128-29.603c0-18.731-14.894-29.38-30.799-29.38v2c15.055 0 28.799 9.992 28.799 27.38h2zM107.417-.12c-12.604 0-24.727 6.384-30.71 19.682l1.823.82C84.156 7.88 95.512 1.88 107.417 1.88v-2zM77.113 20.834l14.964 8.772 1.011-1.726-14.964-8.772-1.011 1.726zM93.49 29.16c2.844-6.183 7.697-9.996 14.184-9.996v-2c-7.444 0-12.911 4.443-16.001 11.16l1.817.836zm14.184-9.996c3.196 0 5.868 1.052 7.735 2.876 1.864 1.82 3.004 4.485 3.004 7.863h2c0-3.846-1.31-7.05-3.607-9.294-2.292-2.24-5.491-3.445-9.132-3.445v2zm10.739 10.74c0 2.779-1.035 5.594-2.833 8.503-1.799 2.91-4.322 5.85-7.209 8.864l1.445 1.384c2.918-3.048 5.555-6.107 7.465-9.196 1.91-3.09 3.132-6.273 3.132-9.556h-2zm-10.037 17.362l-30.83 31.735 1.434 1.394 30.832-31.734-1.435-1.394zM77.263 79.698v13.287h2V79.698h-2z" fill="#1F4439"/></svg>