<svg width="140" height="95" fill="none" xmlns="http://www.w3.org/2000/svg"><path d="M36.739 95.03c11.856 0 21.186-4.919 27.52-13.433 6.311-8.48 9.6-20.451 9.6-34.524h-2c0 13.792-3.227 25.298-9.204 33.33C56.704 88.402 47.973 93.03 36.74 93.03v2zm37.12-47.957c0-14.072-3.289-26.044-9.6-34.524C57.926 4.036 48.596-.883 36.74-.883v2c11.234 0 19.965 4.628 25.916 12.626 5.977 8.032 9.204 19.539 9.204 33.33h2zM36.739-.883c-11.794 0-21.122 4.92-27.473 13.431C2.94 21.028-.38 32.998-.38 47.073h2c0-13.79 3.257-25.296 9.25-33.329 5.97-8 14.7-12.627 25.87-12.627v-2zM-.381 47.073c0 14.075 3.32 26.046 9.647 34.525 6.35 8.512 15.68 13.431 27.473 13.431v-2c-11.17 0-19.9-4.626-25.87-12.627-5.993-8.032-9.25-19.54-9.25-33.329h-2zm37.12 28.541c-5.717 0-9.973-2.432-12.854-7.133-2.924-4.771-4.465-11.94-4.465-21.408h-2c0 9.626 1.556 17.226 4.76 22.453 3.246 5.296 8.149 8.088 14.559 8.088v-2zM19.42 47.074c0-9.467 1.54-16.67 4.465-21.475 2.884-4.736 7.141-7.196 12.853-7.196v-2c-6.415 0-11.317 2.83-14.56 8.156-3.202 5.257-4.758 12.889-4.758 22.514h2zm17.318-28.67c5.712 0 10.003 2.461 12.919 7.199 2.956 4.804 4.527 12.007 4.527 21.47h2c0-9.628-1.589-17.26-4.824-22.518-3.276-5.324-8.21-8.152-14.622-8.152v2zm17.447 28.67c0 9.463-1.572 16.632-4.527 21.403-2.913 4.703-7.203 7.137-12.92 7.137v2c6.408 0 11.342-2.79 14.62-8.084 3.237-5.227 4.826-12.828 4.826-22.457h-2zm65.056-8.515l-.792-.61-.89 1.154 1.398.415.284-.959zm16.899-21.93l.792.61.208-.269v-.34h-1zm0-14.706h1v-1h-1v1zm-56.76 0v-1h-1v1h1zm0 16.641h-1v1h1v-1zm35.346 0l.794.609 1.233-1.609h-2.027v1zm-17.802 23.22l-.793-.608-.434.566.393.595.834-.553zm6.837 10.32l-.834.553.297.447h.537v-1zM91.894 66.165l.95-.31-.382-1.171-1.067.615.5.866zm-15.222 8.772l-.5-.866-.75.433.322.805.928-.372zm43.362-35.767l16.899-21.93-1.584-1.221-16.899 21.93 1.584 1.22zm17.107-22.54V1.922h-2V16.63h2zm-1-15.707h-56.76v2h56.76v-2zm-57.76 1v16.641h2V1.924h-2zm1 17.641h35.346v-2H79.381v2zm34.552-1.608l-17.802 23.22 1.588 1.217 17.802-23.22-1.588-1.217zm-17.842 24.38l6.837 10.32 1.668-1.104-6.837-10.32-1.668 1.105zm7.671 10.768h3.87v-2h-3.87v2zm3.87 0c4.469 0 7.823 1.21 10.046 3.169 2.21 1.948 3.402 4.725 3.402 8.086h2c0-3.862-1.387-7.213-4.08-9.586-2.679-2.362-6.549-3.669-11.368-3.669v2zM121.08 64.36c0 3.43-1.195 6.204-3.399 8.133-2.22 1.942-5.573 3.122-10.049 3.122v2c4.812 0 8.683-1.27 11.366-3.617 2.697-2.36 4.082-5.714 4.082-9.638h-2zm-13.448 11.255c-4.112 0-7.287-.902-9.675-2.534-2.382-1.627-4.071-4.04-5.112-7.225l-1.901.621c1.151 3.523 3.074 6.335 5.885 8.255 2.803 1.916 6.402 2.883 10.803 2.883v-2zM91.395 65.3l-15.222 8.772.998 1.733 15.222-8.772-.998-1.733zM75.744 75.31c5.349 13.373 18.045 19.72 31.888 19.72v-2c-13.247 0-25.06-6.036-30.031-18.463l-1.857.743zm31.888 19.72c8.707 0 17.01-2.637 23.155-7.814 6.165-5.193 10.095-12.893 10.095-22.856h-2c0 9.388-3.681 16.523-9.384 21.327-5.723 4.821-13.545 7.343-21.866 7.343v2zm33.25-30.67c0-13.828-9.295-23.18-21.355-26.758l-.569 1.917c11.418 3.388 19.924 12.096 19.924 24.841h2z" fill="#1F4439"/></svg>