<svg width="96" height="97" fill="none" xmlns="http://www.w3.org/2000/svg"><path fill-rule="evenodd" clip-rule="evenodd" d="M81.884 74.305c-1.457 0-2.812.39-4.01 1.028L59.472 56.86a14 14 0 002.383-5.568h6.398a8.414 8.414 0 007.985 5.602c4.682 0 8.47-3.682 8.47-8.233 0-4.552-3.788-8.234-8.47-8.234a8.415 8.415 0 00-8.052 5.811h-6.32a13.924 13.924 0 00-2.157-5.387l18.58-18.647a8.587 8.587 0 003.596.808c4.682 0 8.47-3.682 8.47-8.234 0-4.551-3.788-8.233-8.47-8.233-4.675 0-8.46 3.682-8.46 8.233 0 1.474.424 2.84 1.125 4.038l-18.387 18.46a14.016 14.016 0 00-5.625-2.366v-6.67c3.428-1.05 5.935-4.127 5.935-7.815 0-4.551-3.789-8.233-8.47-8.233-4.676 0-8.46 3.682-8.46 8.233 0 3.7 2.514 6.794 5.975 7.833v6.646a13.994 13.994 0 00-5.596 2.304l-18.41-18.471c.667-1.18 1.08-2.513 1.08-3.953 0-4.552-3.79-8.233-8.472-8.233-4.675 0-8.459 3.681-8.459 8.233 0 4.552 3.784 8.233 8.46 8.233a8.618 8.618 0 003.681-.847l18.55 18.62a13.904 13.904 0 00-2.22 5.46H27.82a8.414 8.414 0 00-8.058-5.81c-4.676 0-8.46 3.681-8.46 8.233 0 4.551 3.784 8.233 8.46 8.233 3.727 0 6.861-2.349 7.985-5.602h6.398c.384 2.084 1.248 3.993 2.45 5.648L18.22 75.395a8.574 8.574 0 00-4.105-1.067c-4.676 0-8.46 3.681-8.46 8.233 0 4.551 3.784 8.233 8.46 8.233 4.681 0 8.47-3.681 8.47-8.233a7.965 7.965 0 00-.847-3.535l18.494-18.573a13.844 13.844 0 005.28 2.083v6.545c-3.456 1.04-5.974 4.128-5.974 7.833 0 4.551 3.784 8.233 8.46 8.233 4.68 0 8.47-3.682 8.47-8.233 0-3.682-2.502-6.765-5.935-7.816v-6.567a13.968 13.968 0 005.32-2.13l18.46 18.529a7.952 7.952 0 00-.893 3.631c0 4.551 3.784 8.233 8.46 8.233 4.681 0 8.47-3.681 8.47-8.233 0-4.552-3.783-8.256-8.465-8.256z" fill="#00E3A5"/></svg>