<svg width="97" height="97" fill="none" xmlns="http://www.w3.org/2000/svg"><path d="M66.799 76.765a10 10 0 100-20 10 10 0 000 20zm-36-36a10 10 0 100-20 10 10 0 000 20zm-8 44a10 10 0 100-20 10 10 0 000 20zm52-52a10 10 0 100-20 10 10 0 000 20zm-26 52l8-8-8 8z" fill="#00E3A5"/><path d="M40.799 20.765l8-8m-16 52l32-32m-16 52l8-8m10 0a10 10 0 100-20 10 10 0 000 20zm-36-36a10 10 0 100-20 10 10 0 000 20zm-8 44a10 10 0 100-20 10 10 0 000 20zm52-52a10 10 0 100-20 10 10 0 000 20z" stroke="#00E3A5" stroke-width="5" stroke-linecap="round" stroke-linejoin="round"/></svg>