<svg width="116" height="94" viewBox="0 0 116 94" fill="none" xmlns="http://www.w3.org/2000/svg">
<path d="M36.9299 94.9151C48.7863 94.9151 58.1159 89.9969 64.4513 81.4831C70.7617 73.003 74.0499 61.0316 74.0499 46.9591H72.0499C72.0499 60.7507 68.8237 72.2573 62.8468 80.2891C56.895 88.2874 48.1646 92.9151 36.9299 92.9151V94.9151ZM74.0499 46.9591C74.0499 32.8867 70.7617 20.9152 64.4513 12.4351C58.1159 3.92138 48.7863 -0.996876 36.9299 -0.996876V1.00312C48.1646 1.00312 56.895 5.63087 62.8468 13.6291C68.8237 21.661 72.0499 33.1676 72.0499 46.9591H74.0499ZM36.9299 -0.996876C25.1368 -0.996876 15.8083 3.92236 9.45767 12.4341C3.13132 20.9134 -0.190078 32.8846 -0.190078 46.9591H1.80992C1.80992 33.1696 5.06752 21.6628 11.0607 13.6301C17.0296 5.62989 25.7611 1.00312 36.9299 1.00312V-0.996876ZM-0.190078 46.9591C-0.190078 61.0336 3.13132 73.0048 9.45767 81.4841C15.8083 89.9959 25.1368 94.9151 36.9299 94.9151V92.9151C25.7611 92.9151 17.0296 88.2884 11.0607 80.2881C5.06752 72.2554 1.80992 60.7486 1.80992 46.9591H-0.190078ZM36.9299 75.5001C31.2138 75.5001 26.9577 73.0678 24.0763 68.3666C21.1521 63.5955 19.6119 56.4258 19.6119 46.9591H17.6119C17.6119 56.5844 19.1678 64.1853 22.3711 69.4117C25.6172 74.708 30.5201 77.5001 36.9299 77.5001V75.5001ZM19.6119 46.9591C19.6119 37.4927 21.1519 30.2893 24.0778 25.4847C26.9616 20.7493 31.2188 18.2891 36.9299 18.2891V16.2891C30.5151 16.2891 25.6133 19.118 22.3696 24.4445C19.1679 29.702 17.6119 37.3335 17.6119 46.9591H19.6119ZM36.9299 18.2891C42.6426 18.2891 46.9334 20.7509 49.849 25.4887C52.8056 30.2932 54.3769 37.4957 54.3769 46.9591H56.3769C56.3769 37.3305 54.7878 29.6981 51.5523 24.4405C48.2759 19.1164 43.3432 16.2891 36.9299 16.2891V18.2891ZM54.3769 46.9591C54.3769 56.4228 52.8055 63.5916 49.8505 68.3626C46.9373 73.0662 42.6476 75.5001 36.9299 75.5001V77.5001C43.3383 77.5001 48.272 74.7095 51.5508 69.4157C54.7879 64.1892 56.3769 56.5874 56.3769 46.9591H54.3769ZM100.185 1.80912V0.809124H100.014L99.8522 0.866228L100.185 1.80912ZM76.4493 10.1941L76.1162 9.25123L75.2274 9.56521L75.4884 10.471L76.4493 10.1941ZM80.8353 25.4161L79.8744 25.693L80.1492 26.647L81.1052 26.379L80.8353 25.4161ZM97.8633 20.6431H98.8633V19.3243L97.5934 19.6802L97.8633 20.6431ZM97.8633 92.1091H96.8633V93.1091H97.8633V92.1091ZM115.665 92.1091V93.1091H116.665V92.1091H115.665ZM115.665 1.80912H116.665V0.809124H115.665V1.80912ZM99.8522 0.866228L76.1162 9.25123L76.7824 11.137L100.518 2.75202L99.8522 0.866228ZM75.4884 10.471L79.8744 25.693L81.7962 25.1393L77.4102 9.91725L75.4884 10.471ZM81.1052 26.379L98.1332 21.606L97.5934 19.6802L80.5654 24.4532L81.1052 26.379ZM96.8633 20.6431V92.1091H98.8633V20.6431H96.8633ZM97.8633 93.1091H115.665V91.1091H97.8633V93.1091ZM116.665 92.1091V1.80912H114.665V92.1091H116.665ZM115.665 0.809124H100.185V2.80912H115.665V0.809124Z" fill="#1F4439"/>
</svg>
