<svg width="139" height="95" viewBox="0 0 139 95" fill="none" xmlns="http://www.w3.org/2000/svg">
<path d="M36.428 95.7911C48.2843 95.7911 57.6139 90.8729 63.9493 82.3591C70.2597 73.879 73.548 61.9075 73.548 47.8351H71.548C71.548 61.6267 68.3217 73.1332 62.3448 81.1651C56.393 89.1634 47.6626 93.7911 36.428 93.7911V95.7911ZM73.548 47.8351C73.548 33.7627 70.2597 21.7912 63.9493 13.3111C57.6139 4.79736 48.2843 -0.120899 36.428 -0.120899V1.8791C47.6626 1.8791 56.393 6.50685 62.3448 14.5051C68.3217 22.537 71.548 34.0435 71.548 47.8351H73.548ZM36.428 -0.120899C24.6348 -0.120899 15.3063 4.79833 8.95572 13.3101C2.62937 21.7894 -0.692031 33.7606 -0.692031 47.8351H1.30797C1.30797 34.0456 4.56557 22.5388 10.5587 14.5061C16.5276 6.50587 25.2591 1.8791 36.428 1.8791V-0.120899ZM-0.692031 47.8351C-0.692031 61.9096 2.62937 73.8808 8.95572 82.3601C15.3063 90.8719 24.6348 95.7911 36.428 95.7911V93.7911C25.2591 93.7911 16.5276 89.1643 10.5587 81.1641C4.56557 73.1314 1.30797 61.6246 1.30797 47.8351H-0.692031ZM36.428 76.3761C30.7118 76.3761 26.4557 73.9438 23.5743 69.2425C20.6501 64.4715 19.11 57.3018 19.11 47.8351H17.11C17.11 57.4604 18.6658 65.0612 21.8691 70.2877C25.1152 75.5839 30.0181 78.3761 36.428 78.3761V76.3761ZM19.11 47.8351C19.11 38.3687 20.65 31.1652 23.5758 26.3607C26.4596 21.6252 30.7168 19.1651 36.428 19.1651V17.1651C30.0131 17.1651 25.1113 19.994 21.8676 25.3205C18.666 30.578 17.11 38.2095 17.11 47.8351H19.11ZM36.428 19.1651C42.1407 19.1651 46.4315 21.6269 49.3471 26.3647C52.3036 31.1691 53.875 38.3717 53.875 47.8351H55.875C55.875 38.2065 54.2858 30.5741 51.0504 25.3165C47.774 19.9923 42.8413 17.1651 36.428 17.1651V19.1651ZM53.875 47.8351C53.875 57.2988 52.3035 64.4676 49.3486 69.2386C46.4354 73.9422 42.1456 76.3761 36.428 76.3761V78.3761C42.8363 78.3761 47.7701 75.5855 51.0489 70.2916C54.2859 65.0651 55.875 57.4634 55.875 47.8351H53.875ZM78.2633 92.9851H77.2633V93.9851H78.2633V92.9851ZM138.635 92.9851V93.9851H139.635V92.9851H138.635ZM138.635 75.8281H139.635V74.8281H138.635V75.8281ZM104.708 75.8281L104.001 75.121L102.294 76.8281H104.708V75.8281ZM77.6183 19.9711L76.7064 19.5607L76.3378 20.3797L77.1126 20.8338L77.6183 19.9711ZM92.5823 28.7431L92.0766 29.6058L93.0293 30.1643L93.4908 29.161L92.5823 28.7431ZM109.094 47.9641L109.812 48.661L109.817 48.6557L109.094 47.9641ZM78.2633 79.6981L77.546 79.0013L77.2633 79.2923V79.6981H78.2633ZM78.2633 93.9851H138.635V91.9851H78.2633V93.9851ZM139.635 92.9851V75.8281H137.635V92.9851H139.635ZM138.635 74.8281H104.708V76.8281H138.635V74.8281ZM105.415 76.5352L123.088 58.8622L121.674 57.448L104.001 75.121L105.415 76.5352ZM123.088 58.8622C131.661 50.2899 138.216 40.6286 138.216 29.2591H136.216C136.216 39.8196 130.13 48.9923 121.674 57.448L123.088 58.8622ZM138.216 29.2591C138.216 10.5277 123.322 -0.120899 107.417 -0.120899V1.8791C122.472 1.8791 136.216 11.8705 136.216 29.2591H138.216ZM107.417 -0.120899C94.8128 -0.120899 82.6902 6.26337 76.7064 19.5607L78.5302 20.3815C84.1564 7.87885 95.5117 1.8791 107.417 1.8791V-0.120899ZM77.1126 20.8338L92.0766 29.6058L93.088 27.8804L78.124 19.1084L77.1126 20.8338ZM93.4908 29.161C96.3348 22.9783 101.188 19.1651 107.675 19.1651V17.1651C100.231 17.1651 94.7637 21.6079 91.6738 28.3252L93.4908 29.161ZM107.675 19.1651C110.871 19.1651 113.543 20.217 115.41 22.041C117.274 23.8613 118.414 26.5262 118.414 29.9041H120.414C120.414 26.058 119.104 22.8534 116.807 20.6102C114.515 18.3707 111.316 17.1651 107.675 17.1651V19.1651ZM118.414 29.9041C118.414 32.6838 117.379 35.4994 115.581 38.4082C113.782 41.318 111.259 44.2575 108.372 47.2725L109.817 48.6557C112.735 45.6077 115.372 42.5487 117.282 39.46C119.192 36.3703 120.414 33.1874 120.414 29.9041H118.414ZM108.377 47.2673L77.546 79.0013L78.9805 80.3949L109.812 48.6609L108.377 47.2673ZM77.2633 79.6981V92.9851H79.2633V79.6981H77.2633Z" fill="#1F4439"/>
</svg>
