<svg width="140" height="95" viewBox="0 0 140 95" fill="none" xmlns="http://www.w3.org/2000/svg">
<path d="M36.7385 95.0294C48.5949 95.0294 57.9245 90.1111 64.2599 81.5974C70.5703 73.1173 73.8585 61.1458 73.8585 47.0734H71.8585C71.8585 60.8649 68.6322 72.3715 62.6554 80.4034C56.7036 88.4016 47.9732 93.0294 36.7385 93.0294V95.0294ZM73.8585 47.0734C73.8585 33.0009 70.5703 21.0295 64.2599 12.5494C57.9245 4.03564 48.5949 -0.882618 36.7385 -0.882618V1.11738C47.9732 1.11738 56.7036 5.74513 62.6554 13.7434C68.6322 21.7753 71.8585 33.2818 71.8585 47.0734H73.8585ZM36.7385 -0.882618C24.9454 -0.882618 15.6168 4.03662 9.26627 12.5484C2.93992 21.0277 -0.381484 32.9989 -0.381484 47.0734H1.61852C1.61852 33.2839 4.87612 21.7771 10.8693 13.7444C16.8382 5.74415 25.5697 1.11738 36.7385 1.11738V-0.882618ZM-0.381484 47.0734C-0.381484 61.1479 2.93992 73.1191 9.26627 81.5984C15.6168 90.1102 24.9454 95.0294 36.7385 95.0294V93.0294C25.5697 93.0294 16.8382 88.4026 10.8693 80.4024C4.87612 72.3697 1.61852 60.8629 1.61852 47.0734H-0.381484ZM36.7385 75.6144C31.0224 75.6144 26.7663 73.1821 23.8849 68.4808C20.9607 63.7098 19.4205 56.5401 19.4205 47.0734H17.4205C17.4205 56.6987 18.9764 64.2995 22.1797 69.5259C25.4258 74.8222 30.3287 77.6144 36.7385 77.6144V75.6144ZM19.4205 47.0734C19.4205 37.607 20.9605 30.4035 23.8864 25.599C26.7702 20.8635 31.0274 18.4034 36.7385 18.4034V16.4034C30.3237 16.4034 25.4219 19.2323 22.1782 24.5588C18.9765 29.8162 17.4205 37.4478 17.4205 47.0734H19.4205ZM36.7385 18.4034C42.4512 18.4034 46.742 20.8651 49.6576 25.603C52.6142 30.4074 54.1855 37.61 54.1855 47.0734H56.1855C56.1855 37.4448 54.5964 29.8124 51.3609 24.5548C48.0845 19.2306 43.1518 16.4034 36.7385 16.4034V18.4034ZM54.1855 47.0734C54.1855 56.5371 52.6141 63.7059 49.6591 68.4768C46.7459 73.1805 42.4562 75.6144 36.7385 75.6144V77.6144C43.1469 77.6144 48.0806 74.8238 51.3594 69.5299C54.5965 64.3034 56.1855 56.7017 56.1855 47.0734H54.1855ZM119.242 38.5594L118.45 37.949L117.56 39.1035L118.958 39.5181L119.242 38.5594ZM136.141 16.6294L136.933 17.2398L137.141 16.97V16.6294H136.141ZM136.141 1.92338H137.141V0.923382H136.141V1.92338ZM79.3811 1.92338V0.923382H78.3811V1.92338H79.3811ZM79.3811 18.5644H78.3811V19.5644H79.3811V18.5644ZM114.727 18.5644L115.521 19.1728L116.754 17.5644H114.727V18.5644ZM96.9251 41.7844L96.1315 41.176L95.6975 41.742L96.0914 42.3367L96.9251 41.7844ZM103.762 52.1044L102.928 52.6567L103.225 53.1044H103.762V52.1044ZM91.8941 66.1654L92.8446 65.8547L92.4619 64.684L91.3948 65.299L91.8941 66.1654ZM76.6721 74.9374L76.1728 74.071L75.4216 74.5038L75.7436 75.3088L76.6721 74.9374ZM120.034 39.1698L136.933 17.2398L135.349 16.019L118.45 37.949L120.034 39.1698ZM137.141 16.6294V1.92338H135.141V16.6294H137.141ZM136.141 0.923382H79.3811V2.92338H136.141V0.923382ZM78.3811 1.92338V18.5644H80.3811V1.92338H78.3811ZM79.3811 19.5644H114.727V17.5644H79.3811V19.5644ZM113.933 17.956L96.1315 41.176L97.7187 42.3928L115.521 19.1728L113.933 17.956ZM96.0914 42.3367L102.928 52.6567L104.596 51.5521L97.7587 41.2321L96.0914 42.3367ZM103.762 53.1044H107.632V51.1044H103.762V53.1044ZM107.632 53.1044C112.101 53.1044 115.455 54.3137 117.678 56.273C119.888 58.2212 121.08 60.9982 121.08 64.3594H123.08C123.08 60.4966 121.693 57.1461 119 54.7728C116.321 52.4106 112.451 51.1044 107.632 51.1044V53.1044ZM121.08 64.3594C121.08 67.7889 119.885 70.5626 117.681 72.4917C115.461 74.434 112.108 75.6144 107.632 75.6144V77.6144C112.444 77.6144 116.315 76.3438 118.998 73.9968C121.695 71.6367 123.08 68.2828 123.08 64.3594H121.08ZM107.632 75.6144C103.52 75.6144 100.345 74.7116 97.9568 73.0797C95.5752 71.4525 93.8859 69.0399 92.8446 65.8547L90.9436 66.4761C92.0953 69.9989 94.0179 72.8107 96.8286 74.7311C99.6323 76.6467 103.231 77.6144 107.632 77.6144V75.6144ZM91.3948 65.299L76.1728 74.071L77.1714 75.8038L92.3934 67.0318L91.3948 65.299ZM75.7436 75.3088C81.0929 88.6819 93.7891 95.0294 107.632 95.0294V93.0294C94.385 93.0294 82.5713 86.9929 77.6006 74.566L75.7436 75.3088ZM107.632 95.0294C116.339 95.0294 124.642 92.3917 130.787 87.2154C136.952 82.0219 140.882 74.3219 140.882 64.3594H138.882C138.882 73.7469 135.201 80.8818 129.498 85.6858C123.775 90.507 115.953 93.0294 107.632 93.0294V95.0294ZM140.882 64.3594C140.882 50.5305 131.587 41.179 119.527 37.6007L118.958 39.5181C130.376 42.9058 138.882 51.6143 138.882 64.3594H140.882Z" fill="#1F4439"/>
</svg>
